<svg width="60" height="31" viewBox="0 0 60 31" fill="none" xmlns="http://www.w3.org/2000/svg">
<g clip-path="url(#clip0_80_279)">
<path d="M11.458 30.7889C8.0913 30.7889 5.3329 30.0045 3.18277 28.4356C1.06092 26.8389 0 24.5697 0 21.6281C0 21.0118 0.070728 20.2554 0.212185 19.3589C0.57997 17.3419 1.10336 14.9187 1.78235 12.0892C3.70616 4.38521 8.67128 0.533203 16.6777 0.533203C18.8561 0.533203 20.8082 0.897393 22.534 1.62577C24.2598 2.32614 25.6177 3.39069 26.6079 4.81943C27.5981 6.22016 28.0932 7.90103 28.0932 9.86206C28.0932 10.4504 28.0225 11.1927 27.8811 12.0892C27.4566 14.5825 26.9474 17.0058 26.3533 19.3589C25.3631 23.197 23.6515 26.0684 21.2185 27.9735C18.7853 29.8504 15.5319 30.7889 11.458 30.7889ZM12.0521 24.7378C13.6364 24.7378 14.9802 24.2755 16.0836 23.351C17.2152 22.4265 18.0215 21.0118 18.5024 19.1069C19.1532 16.4734 19.6482 14.1763 19.9878 12.2153C20.101 11.627 20.1576 11.0246 20.1576 10.4083C20.1576 7.85901 18.8136 6.58435 16.126 6.58435C14.5417 6.58435 13.1837 7.0466 12.0521 7.97107C10.9487 8.89555 10.1566 10.3103 9.67561 12.2153C9.16636 14.0922 8.65713 16.3895 8.14788 19.1069C8.03471 19.6671 7.97813 20.2554 7.97813 20.8717C7.97813 23.449 9.33611 24.7378 12.0521 24.7378Z" fill="#222222"/>
<path d="M31.9917 30.3684C31.6804 30.3684 31.44 30.2703 31.2703 30.0743C31.1288 29.8501 31.0863 29.5981 31.1429 29.3179L36.9992 2.00367C37.0558 1.69551 37.2114 1.44338 37.466 1.24728C37.7206 1.05118 37.9895 0.953125 38.2723 0.953125H49.5605C52.7008 0.953125 55.2187 1.59746 57.1142 2.88614C59.0381 4.1748 60 6.03777 60 8.47503C60 9.17539 59.9152 9.90377 59.7454 10.6602C59.0381 13.8818 57.6094 16.263 55.4593 17.8039C53.3374 19.3447 50.4233 20.115 46.7172 20.115H40.9883L39.0362 29.3179C38.9796 29.6261 38.8239 29.8781 38.5693 30.0743C38.3147 30.2703 38.046 30.3684 37.763 30.3684H31.9917ZM47.0143 14.3161C48.2026 14.3161 49.2352 13.9939 50.1122 13.3496C51.0176 12.7052 51.6116 11.7807 51.8945 10.5761C51.9794 10.0999 52.0219 9.67967 52.0219 9.31546C52.0219 8.50305 51.7814 7.88673 51.3005 7.4665C50.8195 7.01828 49.999 6.79416 48.8392 6.79416H43.7467L42.134 14.3161H47.0143Z" fill="#222222"/>
</g>
<defs>
<clipPath id="clip0_80_279">
<rect width="60.0002" height="30.2557" fill="white" transform="translate(0 0.533203)"/>
</clipPath>
</defs>
</svg>
