<svg width="46" height="51" viewBox="0 0 46 51" fill="none" xmlns="http://www.w3.org/2000/svg">
<g clip-path="url(#clip0_80_1106)">
<mask id="mask0_80_1106" style="mask-type:luminance" maskUnits="userSpaceOnUse" x="0" y="0" width="46" height="51">
<path d="M45.5 0.660156H0.5V50.6602H45.5V0.660156Z" fill="white"/>
</mask>
<g mask="url(#mask0_80_1106)">
<path d="M26.7713 29.4597L24.3093 36.097C24.2367 36.2811 24.2367 36.4856 24.3093 36.6697L28.5372 48.0934L33.4299 45.3116L27.5608 29.4597C27.4257 29.0916 26.9063 29.0916 26.7713 29.4597Z" fill="#222222"/>
<path d="M31.6946 18.2917C31.5596 17.9236 31.0402 17.9236 30.9052 18.2917L28.4433 24.9291C28.3705 25.1133 28.3705 25.3178 28.4433 25.5019L35.3719 44.2072L40.2646 41.4253L31.6946 18.2917Z" fill="#222222"/>
<path d="M23 3.75895C23.1246 3.75895 23.239 3.78962 23.3532 3.851L42.0097 14.4564C42.2279 14.5792 42.3629 14.8042 42.3629 15.0496V36.2605C42.3629 36.5059 42.2279 36.7309 42.0097 36.8536L23.3532 47.4694C23.2494 47.5306 23.1246 47.5614 23 47.5614C22.8754 47.5614 22.761 47.5306 22.6468 47.4694L4.00069 36.8639C3.78255 36.7411 3.6475 36.5161 3.6475 36.2708V15.0496C3.6475 14.8042 3.78255 14.5792 4.00069 14.4564L22.6572 3.851C22.761 3.78962 22.8858 3.75895 23 3.75895ZM23 0.660156C22.3352 0.660156 21.6703 0.834016 21.0782 1.17151L2.42175 11.777C1.23753 12.4519 0.5 13.6996 0.5 15.0496V36.2605C0.5 37.6105 1.23753 38.8684 2.42175 39.5434L21.0782 50.1488C21.6703 50.4863 22.3352 50.6602 23 50.6602C23.6648 50.6602 24.3297 50.4863 24.9218 50.1488L43.5782 39.5434C44.7729 38.8684 45.5 37.6206 45.5 36.2605V15.0496C45.5 13.6996 44.7625 12.4417 43.5782 11.7667L24.9322 1.17151C24.3297 0.834016 23.6648 0.660156 23 0.660156Z" fill="#222222"/>
<path d="M10.6709 44.228L12.3849 39.6055L15.8336 42.4281L12.6134 45.3325L10.6709 44.228Z" fill="#222222"/>
<path d="M21.4308 13.5352H16.7044C16.3512 13.5352 16.0291 13.7499 15.9149 14.0772L5.77637 41.4447L10.669 44.2264L21.836 14.0874C21.9294 13.8215 21.732 13.5352 21.4308 13.5352Z" fill="#222222"/>
<path d="M29.7087 13.5352H24.9823C24.6291 13.5352 24.307 13.7499 24.1927 14.0772L12.6104 45.331L17.503 48.1128L30.1034 14.0976C30.2072 13.8215 29.9996 13.5352 29.7087 13.5352Z" fill="#222222"/>
</g>
</g>
<defs>
<clipPath id="clip0_80_1106">
<rect width="45" height="50" fill="white" transform="translate(0.5 0.660156)"/>
</clipPath>
</defs>
</svg>
