<svg width="50" height="51" viewBox="0 0 50 51" fill="none" xmlns="http://www.w3.org/2000/svg">
  <path
    d="M49.2665 30.1128L31.129 2.76969C31.0401 2.63691 30.8344 2.69282 30.8251 2.85122C30.783 3.54307 30.1965 7.23758 26.0179 7.23758C22.6268 7.23758 21.0634 6.62959 17.5696 6.62959C16.3614 6.62959 14.9241 7.31212 14.1692 8.45355L12.7437 10.6036L26.3895 31.1704H31.7272C33.3023 31.1704 34.7723 31.9577 35.6393 33.2669L38.8995 38.182H50.0003V32.5308C50.0003 31.6735 49.7455 30.8326 49.2688 30.1151L49.2665 30.1128ZM34.3821 18.4004C32.1899 17.5151 30.4815 13.6412 30.4815 13.6412C34.9079 13.6412 37.8945 18.8989 37.8945 18.8989C37.8945 18.8989 36.5742 19.2855 34.3821 18.4004Z"
    fill="#222222" />
  <path
    d="M32.8319 48.6228H12.8504C11.4153 48.6251 10.0758 47.9051 9.28372 46.7073L0.775776 33.8373C-0.258592 32.2737 -0.258592 30.2417 0.775776 28.6781L10.2388 14.3797L10.2435 14.375L32.8296 48.6205L32.8319 48.6228Z"
    fill="#222222" />
</svg>