<svg width="50" height="47" viewBox="0 0 50 47" fill="none" xmlns="http://www.w3.org/2000/svg">
<path fill-rule="evenodd" clip-rule="evenodd" d="M13.5978 10.8642H36.4021C37.6989 10.8642 38.4479 12.2855 37.6856 13.2986L26.8327 27.7151C26.0697 28.7283 26.8191 30.1494 28.1158 30.1494H37.6802C38.1878 30.1494 38.6647 29.9148 38.9633 29.5177L49.6966 15.2604C50.1011 14.7226 50.1011 13.9948 49.6966 13.4571L40.2865 0.957908C39.988 0.560906 39.5109 0.326172 39.0036 0.326172H10.9965C10.4887 0.326172 10.012 0.560906 9.71343 0.957908L0.303363 13.4571C-0.101121 13.9948 -0.101121 14.723 0.303363 15.2604L23.7164 46.3617C24.3499 47.2032 25.6498 47.2032 26.2832 46.3617L31.0648 40.0096C31.4697 39.4719 31.4697 38.7438 31.0648 38.2061L12.3148 13.2986C11.5521 12.2855 12.3011 10.8642 13.5978 10.8642Z" fill="#222222"/>
</svg>
