<svg width="54" height="56" viewBox="0 0 54 56" fill="none" xmlns="http://www.w3.org/2000/svg">
<path d="M51.9467 17.4118C51.258 15.6473 50.3845 13.9629 49.3696 12.4022C46.1473 7.46899 41.4098 3.65996 35.8242 1.6845C33.0586 0.69131 30.0973 0.160156 27.0054 0.160156C22.0505 0.160156 17.411 1.52442 13.4311 3.91462C11.8254 4.8787 10.3356 5.99922 8.96915 7.2689C4.59057 11.318 1.52412 16.8224 0.501964 23.0435C0.255488 24.5387 0.125 26.0812 0.125 27.6529C0.125 29.3628 0.277237 31.0326 0.574459 32.6516C1.65098 38.6689 4.64132 44.0059 8.88941 47.9677C10.245 49.2411 11.7275 50.3725 13.3224 51.3402C17.3276 53.7631 22.0034 55.1602 27.0054 55.1602C29.9632 55.1602 32.8085 54.6727 35.4618 53.7559C41.2358 51.8059 46.14 47.9023 49.4239 42.8126C50.4497 41.241 51.3124 39.5493 51.9866 37.7776C53.2153 34.6452 53.875 31.2291 53.875 27.6529C53.875 24.0803 53.1936 20.5696 51.9467 17.4118ZM34.6027 32.6443L34.5121 32.7243L23.6744 42.2415L23.0183 42.8235L22.3224 42.2051H22.3115L20.7457 40.8263L18.879 39.1855L24.0441 34.6561L32.0872 27.5801L24.1601 20.606L19.2197 16.2694L18.299 15.4509L21.9454 12.2348L22.4021 11.8055L23.9462 13.148L31.0904 19.4236L36.2374 23.9421L40.3732 27.5801L36.2266 31.2182L34.6027 32.6443Z" fill="#222222"/>
</svg>
