<svg width="21" height="23" viewBox="0 0 21 23" fill="none" xmlns="http://www.w3.org/2000/svg">
<path d="M19.3531 6.45233C18.4903 4.9215 17.25 3.64968 15.7564 2.76419C14.2508 1.86069 12.5348 1.39092 10.7899 1.40462C9.04335 1.39008 7.32554 1.85986 5.81852 2.76419C4.32336 3.64891 3.08164 4.92082 2.21791 6.45233C1.33589 7.99453 0.877276 9.75229 0.890606 11.5396C0.869947 13.6831 1.53253 15.7751 2.77779 17.498C3.98098 19.2189 5.68973 20.5008 7.65455 21.1565C7.74148 21.1836 7.83345 21.1895 7.923 21.1735C8.01255 21.1575 8.09717 21.1202 8.17002 21.0644C8.22404 21.0147 8.26691 20.9537 8.29574 20.8854C8.32457 20.8171 8.33865 20.7433 8.33702 20.669L8.33026 19.9561C8.32576 19.5071 8.3235 19.1169 8.3235 18.7853L8.02812 18.8417C7.79167 18.8803 7.55216 18.896 7.31283 18.8881C7.01225 18.8829 6.71263 18.8522 6.41701 18.7962C6.10264 18.7368 5.80672 18.6012 5.55402 18.4007C5.28897 18.1954 5.0913 17.9122 4.98739 17.5889L4.859 17.2854C4.75073 17.045 4.6146 16.819 4.45357 16.612C4.309 16.4009 4.11653 16.2288 3.89272 16.1107L3.80295 16.0445C3.74127 15.9987 3.6852 15.9456 3.63596 15.8863C3.58838 15.831 3.54932 15.7687 3.52012 15.7014C3.49437 15.6394 3.51593 15.5886 3.58479 15.5491C3.70326 15.5004 3.83105 15.48 3.95837 15.4897L4.2161 15.5293C4.44646 15.5924 4.66299 15.6998 4.85417 15.8457C5.10956 16.024 5.32293 16.2585 5.47873 16.532C5.64918 16.8615 5.8945 17.1443 6.19403 17.3566C6.44131 17.5353 6.73514 17.6341 7.03771 17.6404C7.28413 17.6436 7.53024 17.6214 7.77231 17.5741C7.97237 17.5321 8.16682 17.4657 8.35149 17.3764C8.39411 16.8598 8.61846 16.3766 8.98282 16.0168C8.53739 15.9721 8.09594 15.8927 7.66226 15.7795C7.23903 15.6602 6.83205 15.4872 6.4508 15.2643C6.05172 15.0421 5.69915 14.7418 5.41309 14.3803C5.10707 13.9652 4.87803 13.496 4.73737 12.9961C4.55168 12.3544 4.4625 11.6876 4.47287 11.0185C4.45158 10.0105 4.81725 9.03415 5.49128 8.29936C5.17443 7.4247 5.20669 6.45741 5.58106 5.60693C5.95952 5.54421 6.34767 5.60653 6.68923 5.78491C7.05982 5.92596 7.41932 6.09587 7.76459 6.29313C7.9924 6.43355 8.17485 6.5522 8.31193 6.6491C9.93109 6.19163 11.6409 6.19163 13.2601 6.6491L13.7496 6.33269C14.1258 6.10122 14.5227 5.90688 14.9349 5.75228C15.2588 5.59111 15.6243 5.54017 15.9785 5.60693C16.1678 6.02667 16.2743 6.48057 16.2921 6.9426C16.3098 7.40463 16.2383 7.8657 16.0817 8.29936C16.7557 9.0342 17.1213 10.0105 17.1001 11.0185C17.1102 11.6905 17.0211 12.3603 16.8356 13.005C16.6965 13.5068 16.4649 13.9767 16.1532 14.3892C15.8625 14.7467 15.5085 15.0446 15.1097 15.2673C14.7283 15.4901 14.3214 15.663 13.8982 15.7824C13.4646 15.8961 13.0231 15.9758 12.5777 16.0207C12.8174 16.2641 13.0016 16.5587 13.1174 16.8834C13.2333 17.2081 13.2777 17.5551 13.2476 17.8994V20.6838C13.2458 20.7576 13.2593 20.831 13.287 20.8992C13.3148 20.9673 13.3563 21.0287 13.4087 21.0793C13.4801 21.1354 13.5637 21.173 13.6522 21.189C13.7407 21.205 13.8317 21.1989 13.9175 21.1713C15.8824 20.5156 17.5911 19.2338 18.7943 17.5128C20.0417 15.7855 20.7038 13.688 20.6795 11.5396C20.6928 9.75243 20.2345 7.99479 19.3531 6.45233Z" fill="#181822"/>
</svg>
