<svg width="25" height="25" viewBox="0 0 25 25" fill="none" xmlns="http://www.w3.org/2000/svg">
<g clip-path="url(#clip0_80_1224)">
<path d="M24.305 10.0502C24.3047 9.42555 24.131 8.81325 23.8033 8.28146C23.4756 7.74967 23.0068 7.31925 22.449 7.03812C21.8912 6.75698 21.2663 6.63616 20.6439 6.68911C20.0215 6.74206 19.4261 6.96669 18.9238 7.338C17.3818 6.58041 15.7106 6.12079 13.9981 5.98332L14.3544 3.84488L15.8234 4.08957C15.9971 4.55345 16.3189 4.94707 16.7391 5.20937C17.1593 5.47168 17.6542 5.58801 18.1472 5.54033C18.6403 5.49265 19.1038 5.28362 19.4659 4.94566C19.828 4.6077 20.0684 4.15969 20.15 3.67114C20.2315 3.18258 20.1495 2.68077 19.9168 2.24354C19.684 1.80631 19.3135 1.4581 18.8627 1.25292C18.4119 1.04773 17.906 0.997041 17.4234 1.1087C16.9408 1.22037 16.5086 1.48814 16.1938 1.8705L13.6175 1.44019C13.4717 1.41547 13.3225 1.41973 13.1784 1.45272C13.0342 1.48572 12.898 1.5468 12.7775 1.63248C12.657 1.71815 12.5546 1.82675 12.4761 1.95204C12.3976 2.07734 12.3445 2.21688 12.32 2.36269L11.7219 5.95425C9.81876 6.07707 7.99251 6.55332 6.43626 7.338C5.75764 6.84111 4.91793 6.61551 4.08166 6.7054C3.24539 6.7953 2.47282 7.19421 1.91531 7.82399C1.3578 8.45377 1.05554 9.26902 1.06774 10.11C1.07994 10.951 1.40572 11.7572 1.98126 12.3705C1.86427 12.8381 1.80508 13.3182 1.80501 13.8002C1.80501 15.9836 2.99094 18.0068 5.14532 19.4983C7.17313 20.9018 9.84876 21.6752 12.68 21.6752C15.5113 21.6752 18.1869 20.9018 20.2147 19.4983C22.3691 18.0068 23.555 15.9836 23.555 13.8002C23.5549 13.3182 23.4957 12.8381 23.3788 12.3705C23.9716 11.7432 24.3029 10.9133 24.305 10.0502ZM21.5009 11.0196C21.2657 11.1574 21.0884 11.3759 21.0022 11.6346C20.916 11.8932 20.9266 12.1744 21.0322 12.4258C21.2095 12.8625 21.3021 13.3289 21.305 13.8002C21.305 15.2233 20.4613 16.5893 18.9341 17.6486C17.2784 18.7943 15.0575 19.4252 12.68 19.4252C10.3025 19.4252 8.08626 18.7943 6.42594 17.6486C4.89876 16.5893 4.05501 15.2233 4.05501 13.8002C4.05635 13.33 4.14669 12.8643 4.32126 12.4277C4.42737 12.177 4.43901 11.8964 4.35402 11.6378C4.26904 11.3793 4.09319 11.1603 3.85907 11.0214C3.71432 10.9369 3.59029 10.8211 3.49604 10.6825C3.4018 10.5439 3.33972 10.3859 3.31435 10.2202C3.28898 10.0545 3.30096 9.88526 3.34942 9.72479C3.39787 9.56431 3.48157 9.4167 3.5944 9.29273C3.70722 9.16876 3.84633 9.07157 4.00154 9.00827C4.15676 8.94497 4.32416 8.91715 4.4915 8.92685C4.65885 8.93655 4.82191 8.98353 4.96877 9.06434C5.11563 9.14515 5.24257 9.25777 5.34032 9.39394C5.50659 9.62205 5.75253 9.77932 6.02935 9.83454C6.30616 9.88977 6.59363 9.83891 6.83469 9.69207L6.85532 9.67988C8.45563 8.70769 10.5238 8.17519 12.68 8.17519C14.8363 8.17519 16.8988 8.70863 18.5009 9.67519L18.5216 9.68738C18.7624 9.83581 19.0504 9.88803 19.328 9.83365C19.6057 9.77927 19.8526 9.62227 20.0197 9.39394C20.1229 9.24869 20.2594 9.13032 20.4178 9.04876C20.5762 8.96719 20.7518 8.92482 20.93 8.92519C21.1768 8.92518 21.4168 9.00635 21.6129 9.15618C21.8091 9.306 21.9505 9.51618 22.0154 9.75431C22.0803 9.99244 22.0651 10.2453 21.9722 10.4739C21.8792 10.7026 21.7136 10.8943 21.5009 11.0196ZM8.93001 14.1752C8.55917 14.1752 8.19665 14.0652 7.88831 13.8592C7.57997 13.6532 7.33965 13.3603 7.19773 13.0177C7.05582 12.6751 7.01869 12.2981 7.09103 11.9344C7.16338 11.5707 7.34196 11.2366 7.60418 10.9744C7.86641 10.7121 8.2005 10.5336 8.56421 10.4612C8.92793 10.3889 9.30493 10.426 9.64754 10.5679C9.99015 10.7098 10.283 10.9502 10.489 11.2585C10.695 11.5668 10.805 11.9294 10.805 12.3002C10.805 12.7975 10.6075 13.2744 10.2558 13.626C9.9042 13.9776 9.42729 14.1752 8.93001 14.1752ZM18.305 12.3002C18.305 12.671 18.195 13.0335 17.989 13.3419C17.783 13.6502 17.4901 13.8906 17.1475 14.0325C16.8049 14.1744 16.4279 14.2115 16.0642 14.1392C15.7005 14.0668 15.3664 13.8882 15.1042 13.626C14.842 13.3638 14.6634 13.0297 14.591 12.666C14.5187 12.3023 14.5558 11.9253 14.6977 11.5827C14.8396 11.24 15.08 10.9472 15.3883 10.7412C15.6967 10.5352 16.0592 10.4252 16.43 10.4252C16.9273 10.4252 17.4042 10.6227 17.7558 10.9744C18.1075 11.326 18.305 11.8029 18.305 12.3002ZM16.3813 16.0989C16.4246 16.2405 16.4396 16.3893 16.4253 16.5366C16.4111 16.684 16.3679 16.8271 16.2982 16.9578C16.2285 17.0884 16.1338 17.204 16.0193 17.298C15.9049 17.3919 15.773 17.4623 15.6313 17.5052C13.7031 18.0709 11.6531 18.0709 9.72501 17.5052C9.43907 17.4182 9.19942 17.2211 9.05876 16.9574C8.91811 16.6937 8.88798 16.3849 8.97501 16.0989C9.06203 15.813 9.25908 15.5733 9.5228 15.4327C9.78652 15.292 10.0953 15.2619 10.3813 15.3489C11.8817 15.7832 13.4745 15.7832 14.975 15.3489C15.1166 15.3056 15.2653 15.2906 15.4127 15.3049C15.5601 15.3191 15.7032 15.3623 15.8338 15.432C15.9645 15.5017 16.0801 15.5964 16.174 15.7109C16.268 15.8253 16.3384 15.9572 16.3813 16.0989Z" fill="black"/>
</g>
<defs>
<clipPath id="clip0_80_1224">
<rect width="24" height="24" fill="white" transform="translate(0.680176 0.300781)"/>
</clipPath>
</defs>
</svg>
