<svg width="23" height="24" viewBox="0 0 23 24" fill="none" xmlns="http://www.w3.org/2000/svg">
<path d="M20.784 2.88112C20.6301 2.74235 20.4429 2.65011 20.2425 2.61433C20.0422 2.57855 19.8363 2.60059 19.647 2.67807L2.23094 9.80358C1.91483 9.93229 1.64726 10.1648 1.46848 10.4662C1.2897 10.7677 1.20939 11.1216 1.23963 11.4749C1.26987 11.8281 1.40903 12.1615 1.63616 12.4249C1.8633 12.6884 2.16612 12.8676 2.49906 12.9355L6.73406 13.8043V18.7691C6.73406 19.1273 6.83645 19.4773 7.02812 19.7743C7.21978 20.0712 7.49195 20.3014 7.8097 20.4355C8.12744 20.5695 8.47625 20.6012 8.81135 20.5265C9.14645 20.4518 9.45253 20.274 9.69031 20.0161L11.6385 17.9039L14.8423 20.8355C15.0657 21.041 15.3364 21.1822 15.6278 21.2455C15.9192 21.3088 16.2213 21.2919 16.5046 21.1964C16.7879 21.101 17.0426 20.9302 17.2438 20.701C17.445 20.4717 17.5858 20.1918 17.6524 19.8885L21.1432 4.02662C21.1886 3.81959 21.1792 3.60352 21.1159 3.40167C21.0526 3.19983 20.9378 3.01986 20.784 2.88112ZM12.8709 7.76502L7.52641 11.7694L4.56758 11.1629L12.8709 7.76502ZM8.79656 17.876V15.2966L10.0856 16.4781L8.79656 17.876ZM15.7713 18.8212L9.42219 13.002L18.5582 6.15772L15.7713 18.8212Z" fill="black"/>
</svg>
