<svg width="25" height="25" viewBox="0 0 25 25" fill="none" xmlns="http://www.w3.org/2000/svg">
  <path
    d="M21.3387 19.947L15.6199 10.9658L21.2187 4.80734C21.4151 4.58589 21.5164 4.29593 21.5005 4.00033C21.4846 3.70472 21.3528 3.4273 21.1337 3.2282C20.9146 3.02911 20.6259 2.92439 20.3301 2.93674C20.0344 2.9491 19.7554 3.07754 19.5537 3.29422L14.3721 8.99797L10.8387 3.44703C10.7371 3.28737 10.597 3.1559 10.4311 3.06479C10.2653 2.97368 10.0791 2.92587 9.88993 2.92578H5.38993C5.1884 2.92587 4.9906 2.9801 4.8172 3.08279C4.6438 3.18548 4.50117 3.33286 4.40421 3.50953C4.30725 3.6862 4.25953 3.88567 4.26604 4.08709C4.27254 4.28851 4.33303 4.48448 4.44118 4.65453L10.1599 13.6358L4.55743 19.7942C4.45599 19.9032 4.37719 20.0312 4.32559 20.1708C4.27399 20.3105 4.25063 20.459 4.25684 20.6077C4.26305 20.7565 4.29873 20.9025 4.3618 21.0374C4.42486 21.1722 4.51407 21.2932 4.62424 21.3933C4.73442 21.4934 4.86337 21.5707 5.00362 21.6206C5.14387 21.6705 5.29264 21.6921 5.4413 21.6841C5.58995 21.6761 5.73554 21.6387 5.86963 21.574C6.00372 21.5094 6.12364 21.4187 6.22243 21.3073L11.4077 15.6036L14.9412 21.1545C15.0427 21.3142 15.1829 21.4457 15.3487 21.5368C15.5146 21.6279 15.7007 21.6757 15.8899 21.6758H20.3899C20.5915 21.6757 20.7893 21.6215 20.9627 21.5188C21.1361 21.4161 21.2787 21.2687 21.3757 21.092C21.4726 20.9154 21.5203 20.7159 21.5138 20.5145C21.5073 20.3131 21.4468 20.1171 21.3387 19.947ZM16.5077 19.4258L7.43931 5.17578H9.27212L18.3406 19.4258H16.5077Z"
    fill="black" />
</svg>