<svg width="16" height="17" viewBox="0 0 16 17" fill="none" xmlns="http://www.w3.org/2000/svg">
  <path fill-rule="evenodd" clip-rule="evenodd"
    d="M13.82 5.53882L13.7267 5.37215C13.6063 5.17061 13.4365 5.00311 13.2333 4.88549L8.76 2.30549C8.55746 2.18799 8.32753 2.1259 8.09333 2.12549H7.9C7.6658 2.1259 7.43586 2.18799 7.23333 2.30549L2.76 4.89215C2.55798 5.00899 2.39017 5.1768 2.27333 5.37882L2.18 5.54549C2.0625 5.74805 2.00041 5.97798 2 6.21215V11.3788C2.00041 11.613 2.0625 11.843 2.18 12.0455L2.27333 12.2122C2.39319 12.4118 2.56033 12.579 2.76 12.6988L7.24 15.2788C7.44153 15.3988 7.67213 15.461 7.90666 15.4588H8.09333C8.32753 15.4584 8.55746 15.3964 8.76 15.2788L13.2333 12.6922C13.4373 12.578 13.6058 12.4095 13.72 12.2055L13.82 12.0388C13.9361 11.8357 13.9981 11.6062 14 11.3722V6.20549C13.9996 5.97131 13.9375 5.74138 13.82 5.53882ZM7.9 3.45882H8.09333L12 5.71215L8 8.01882L4 5.71215L7.9 3.45882ZM8.66666 13.7922L12.5667 11.5388L12.6667 11.3722V6.86549L8.66666 9.17882V13.7922Z"
    fill="white" />
</svg>