<svg width="21" height="23" viewBox="0 0 21 23" fill="none" xmlns="http://www.w3.org/2000/svg">
  <path
    d="M17.7112 4.68527C20.0705 8.15438 21.2356 12.0675 20.8001 16.5723C20.7982 16.5914 20.7883 16.6089 20.7727 16.6203C18.986 17.9323 17.255 18.7286 15.5483 19.2567C15.535 19.2607 15.5208 19.2605 15.5076 19.256C15.4946 19.2516 15.483 19.2431 15.475 19.2318C15.0806 18.6831 14.7224 18.1047 14.4085 17.4972C14.3905 17.4615 14.407 17.4184 14.444 17.4043C15.013 17.1899 15.554 16.9329 16.0745 16.6287C16.1155 16.6047 16.1181 16.5459 16.0802 16.5177C15.9697 16.4357 15.8603 16.3495 15.7557 16.2634C15.7361 16.2474 15.7097 16.2442 15.6875 16.255C12.3088 17.8153 8.60764 17.8153 5.18899 16.255C5.16679 16.245 5.14042 16.2484 5.12136 16.2642C5.01691 16.3504 4.90724 16.4357 4.79783 16.5177C4.75996 16.5459 4.7631 16.6047 4.80435 16.6287C5.32477 16.9272 5.86582 17.1899 6.43403 17.4054C6.47085 17.4195 6.48835 17.4615 6.47006 17.4972C6.16298 18.1055 5.80473 18.6839 5.40311 19.2326C5.38562 19.2548 5.35689 19.265 5.32973 19.2567C3.63112 18.7286 1.90012 17.9323 0.113512 16.6203C0.0986276 16.6089 0.0879215 16.5906 0.0863547 16.5715C-0.277653 12.6749 0.464202 8.72944 3.17232 4.68449C3.17885 4.67378 3.18877 4.66543 3.20026 4.66047C4.53278 4.04885 5.96036 3.59889 7.45242 3.34192C7.47958 3.33774 7.50673 3.35028 7.52083 3.3743C7.70519 3.70073 7.91591 4.11937 8.05848 4.46147C9.63124 4.22121 11.2286 4.22121 12.8342 4.46147C12.9768 4.12668 13.1802 3.70073 13.3638 3.3743C13.3703 3.36238 13.3804 3.35284 13.3927 3.34702C13.405 3.3412 13.4189 3.33942 13.4322 3.34192C14.925 3.59967 16.3526 4.04963 17.684 4.66047C17.6958 4.66543 17.7055 4.67378 17.7112 4.68527ZM8.85805 12.0941C8.8745 10.9422 8.03472 9.98896 6.98057 9.98896C5.93502 9.98896 5.10334 10.9338 5.10334 12.0941C5.10334 13.2542 5.95147 14.1989 6.98057 14.1989C8.02637 14.1989 8.85805 13.2542 8.85805 12.0941ZM15.7992 12.0941C15.8157 10.9422 14.9759 9.98896 13.9221 9.98896C12.8763 9.98896 12.0445 10.9338 12.0445 12.0941C12.0445 13.2542 12.8926 14.1989 13.9221 14.1989C14.9759 14.1989 15.7992 13.2542 15.7992 12.0941Z"
    fill="#181822" />
</svg>