<svg width="25" height="24" viewBox="0 0 25 24" fill="none" xmlns="http://www.w3.org/2000/svg">
  <path
    d="M23.704 16.3491L20.9374 5.4375C20.8646 5.15344 20.7105 4.89677 20.4941 4.69895C20.2776 4.50113 20.0081 4.37074 19.7187 4.32375L16.3381 3.76875C15.9654 3.70881 15.5837 3.78962 15.2673 3.99547C14.9509 4.20132 14.7224 4.5175 14.6262 4.8825L14.6065 4.96219C14.5937 5.01282 14.5917 5.06555 14.6005 5.11701C14.6093 5.16847 14.6288 5.21752 14.6576 5.26103C14.6865 5.30453 14.7241 5.34154 14.7681 5.36966C14.8121 5.39779 14.8615 5.41643 14.9131 5.42438C15.6888 5.53822 16.4541 5.71442 17.2015 5.95125C17.3883 6.00763 17.5468 6.13297 17.6446 6.30184C17.7424 6.47071 17.7724 6.67048 17.7284 6.86062C17.7031 6.95971 17.6578 7.05257 17.5953 7.13351C17.5327 7.21445 17.4543 7.28174 17.3649 7.33127C17.2754 7.38079 17.1767 7.41149 17.075 7.42148C16.9732 7.43148 16.8704 7.42055 16.7731 7.38937C13.9998 6.53886 11.0357 6.53559 8.26055 7.38C8.07274 7.44315 7.86783 7.43153 7.68836 7.34756C7.50889 7.26358 7.36867 7.11371 7.2968 6.92906C7.26264 6.83431 7.24792 6.73365 7.25351 6.63309C7.2591 6.53253 7.28489 6.43412 7.32933 6.34374C7.37378 6.25336 7.43598 6.17286 7.51221 6.10703C7.58844 6.04121 7.67715 5.99142 7.77305 5.96063C8.5298 5.71958 9.30484 5.54025 10.0906 5.42438C10.1421 5.41643 10.1915 5.39779 10.2355 5.36966C10.2795 5.34154 10.3171 5.30453 10.346 5.26103C10.3748 5.21752 10.3943 5.16847 10.4031 5.11701C10.4119 5.06555 10.4099 5.01282 10.3971 4.96219L10.3774 4.8825C10.2812 4.51719 10.0523 4.20081 9.7355 3.99507C9.41866 3.78933 9.03654 3.70898 8.66368 3.76969L5.28117 4.32469C4.99184 4.37161 4.72245 4.50186 4.50599 4.6995C4.28953 4.89715 4.13539 5.15361 4.06242 5.4375L1.29586 16.3491C1.20912 16.692 1.24687 17.0547 1.4024 17.3724C1.55794 17.6902 1.82116 17.9425 2.14524 18.0844L8.42649 20.8697C8.61536 20.9537 8.8194 20.9981 9.02608 21.0003C9.23276 21.0025 9.43771 20.9625 9.62834 20.8826C9.81896 20.8027 9.99123 20.6846 10.1346 20.5357C10.2779 20.3868 10.3893 20.2101 10.4618 20.0166L10.789 19.1306C10.8085 19.0776 10.8157 19.0208 10.8102 18.9645C10.8046 18.9082 10.7864 18.854 10.757 18.8057C10.7275 18.7575 10.6875 18.7165 10.6399 18.686C10.5924 18.6554 10.5385 18.6359 10.4824 18.6291C9.57168 18.5188 8.67314 18.3242 7.79836 18.0478C7.61228 17.9913 7.45455 17.8663 7.35696 17.698C7.25936 17.5298 7.22916 17.3309 7.27242 17.1412C7.2975 17.0419 7.34268 16.9487 7.40516 16.8675C7.46764 16.7863 7.54611 16.7187 7.63572 16.669C7.72532 16.6193 7.82417 16.5884 7.92615 16.5784C8.02813 16.5684 8.13109 16.5793 8.22868 16.6106C11.0124 17.4631 13.9875 17.4631 16.7712 16.6106C16.8686 16.5795 16.9714 16.5686 17.0733 16.5786C17.1751 16.5887 17.2738 16.6195 17.3633 16.6691C17.4528 16.7187 17.5311 16.7861 17.5936 16.8671C17.6561 16.9482 17.7013 17.0411 17.7265 17.1403C17.7703 17.3301 17.7403 17.5294 17.6426 17.6979C17.545 17.8664 17.387 17.9914 17.2006 18.0478C16.3261 18.3243 15.4279 18.5189 14.5174 18.6291C14.4613 18.6359 14.4075 18.6554 14.3599 18.686C14.3124 18.7165 14.2724 18.7575 14.2429 18.8057C14.2134 18.854 14.1952 18.9082 14.1897 18.9645C14.1841 19.0208 14.1914 19.0776 14.2109 19.1306L14.5381 20.0166C14.6107 20.21 14.7221 20.3866 14.8655 20.5354C15.0088 20.6843 15.1811 20.8023 15.3717 20.8822C15.5623 20.962 15.7672 21.0021 15.9738 21C16.1805 20.9979 16.3845 20.9535 16.5734 20.8697L22.8546 18.0844C23.1787 17.9425 23.4419 17.6902 23.5974 17.3724C23.753 17.0547 23.7907 16.692 23.704 16.3491ZM9.12493 14.25C8.90242 14.25 8.68491 14.184 8.49991 14.0604C8.3149 13.9368 8.17071 13.7611 8.08556 13.5555C8.00041 13.35 7.97813 13.1238 8.02154 12.9055C8.06495 12.6873 8.1721 12.4868 8.32943 12.3295C8.48676 12.1722 8.68722 12.065 8.90545 12.0216C9.12368 11.9782 9.34988 12.0005 9.55544 12.0856C9.76101 12.1708 9.93671 12.315 10.0603 12.5C10.1839 12.685 10.2499 12.9025 10.2499 13.125C10.2499 13.4234 10.1314 13.7095 9.92042 13.9205C9.70944 14.1315 9.42329 14.25 9.12493 14.25ZM15.8749 14.25C15.6524 14.25 15.4349 14.184 15.2499 14.0604C15.0649 13.9368 14.9207 13.7611 14.8356 13.5555C14.7504 13.35 14.7281 13.1238 14.7715 12.9055C14.8149 12.6873 14.9221 12.4868 15.0794 12.3295C15.2368 12.1722 15.4372 12.065 15.6554 12.0216C15.8737 11.9782 16.0999 12.0005 16.3054 12.0856C16.511 12.1708 16.6867 12.315 16.8103 12.5C16.9339 12.685 16.9999 12.9025 16.9999 13.125C16.9999 13.4234 16.8814 13.7095 16.6704 13.9205C16.4594 14.1315 16.1733 14.25 15.8749 14.25Z"
    fill="#7B44E1" />
</svg>