<svg width="24" height="24" viewBox="0 0 24 24" fill="none" xmlns="http://www.w3.org/2000/svg">
<g id="simple-icons:farcaster" clip-path="url(#clip0_179_4017)">
<path id="Vector" d="M18.24 0.24H5.76C4.23235 0.24 2.76727 0.846855 1.68706 1.92706C0.606855 3.00727 0 4.47235 0 6L0 18C0 19.5276 0.606855 20.9927 1.68706 22.0729C2.76727 23.1531 4.23235 23.76 5.76 23.76H18.24C19.7676 23.76 21.2327 23.1531 22.3129 22.0729C23.3931 20.9927 24 19.5276 24 18V6C24 4.47235 23.3931 3.00727 22.3129 1.92706C21.2327 0.846855 19.7676 0.24 18.24 0.24ZM19.056 17.406V17.91C19.1238 17.9026 19.1924 17.9095 19.2575 17.9301C19.3225 17.9508 19.3825 17.9848 19.4336 18.03C19.4847 18.0752 19.5258 18.1305 19.5543 18.1925C19.5828 18.2545 19.598 18.3218 19.599 18.39V18.958H14.456V18.389C14.4571 18.3208 14.4725 18.2535 14.5011 18.1916C14.5297 18.1296 14.5709 18.0743 14.6221 18.0293C14.6733 17.9842 14.7334 17.9503 14.7985 17.9297C14.8635 17.9092 14.9322 17.9025 15 17.91V17.406C15 17.186 15.153 17.004 15.358 16.948L15.348 12.584C15.19 10.847 13.708 9.486 11.905 9.486C10.102 9.486 8.62 10.847 8.462 12.584L8.452 16.942C8.68 16.984 8.984 17.15 8.992 17.406V17.91C9.05982 17.9026 9.12844 17.9095 9.19346 17.9301C9.25848 17.9508 9.31847 17.9848 9.36958 18.03C9.4207 18.0752 9.46181 18.1305 9.4903 18.1925C9.51878 18.2545 9.53401 18.3218 9.535 18.39V18.958H4.392V18.389C4.39313 18.3209 4.40846 18.2537 4.437 18.1918C4.46555 18.13 4.50668 18.0747 4.55778 18.0297C4.60888 17.9846 4.66882 17.9507 4.73377 17.9301C4.79873 17.9095 4.86726 17.9026 4.935 17.91V17.406C4.935 17.153 5.136 16.952 5.389 16.934V9.039H4.899L4.289 7.008H6.93V5.042H16.88V7.008H19.702L19.092 9.038H18.602V16.934C18.854 16.951 19.056 17.154 19.056 17.406Z" fill="#7B44E1"/>
</g>
<defs>
<clipPath id="clip0_179_4017">
<rect width="24" height="24" fill="white"/>
</clipPath>
</defs>
</svg>
