<svg width="24" height="24" viewBox="0 0 24 24" fill="none" xmlns="http://www.w3.org/2000/svg">
<rect width="24" height="24" fill="#1E1E1E"/>
<g id="Community Popup" filter="url(#filter0_ddd_6_16246)">
<rect x="-12" y="-187" width="216" height="156" rx="12" fill="white"/>
<rect x="-11.5" y="-186.5" width="215" height="155" rx="11.5" stroke="#F2F2F2"/>
</g>
<g id="Developers" filter="url(#filter1_d_6_16246)">
<rect x="-209" y="-187" width="184" height="217" rx="12" fill="white"/>
<rect x="-208.5" y="-186.5" width="183" height="216" rx="11.5" stroke="#F2F2F2"/>
</g>
<g id="Github Icon">
<rect x="-12" y="-12" width="48" height="48" rx="8" fill="white"/>
<g id="mdi:github">
<path id="Vector" d="M12 2C10.6868 2 9.38642 2.25866 8.17317 2.7612C6.95991 3.26375 5.85752 4.00035 4.92893 4.92893C3.05357 6.8043 2 9.34784 2 12C2 16.42 4.87 20.17 8.84 21.5C9.34 21.58 9.5 21.27 9.5 21V19.31C6.73 19.91 6.14 17.97 6.14 17.97C5.68 16.81 5.03 16.5 5.03 16.5C4.12 15.88 5.1 15.9 5.1 15.9C6.1 15.97 6.63 16.93 6.63 16.93C7.5 18.45 8.97 18 9.54 17.76C9.63 17.11 9.89 16.67 10.17 16.42C7.95 16.17 5.62 15.31 5.62 11.5C5.62 10.39 6 9.5 6.65 8.79C6.55 8.54 6.2 7.5 6.75 6.15C6.75 6.15 7.59 5.88 9.5 7.17C10.29 6.95 11.15 6.84 12 6.84C12.85 6.84 13.71 6.95 14.5 7.17C16.41 5.88 17.25 6.15 17.25 6.15C17.8 7.5 17.45 8.54 17.35 8.79C18 9.5 18.38 10.39 18.38 11.5C18.38 15.32 16.04 16.16 13.81 16.41C14.17 16.72 14.5 17.33 14.5 18.26V21C14.5 21.27 14.66 21.59 15.17 21.5C19.14 20.16 22 16.42 22 12C22 10.6868 21.7413 9.38642 21.2388 8.17317C20.7362 6.95991 19.9997 5.85752 19.0711 4.92893C18.1425 4.00035 17.0401 3.26375 15.8268 2.7612C14.6136 2.25866 13.3132 2 12 2Z" fill="#7B44E1"/>
</g>
</g>
<defs>
<filter id="filter0_ddd_6_16246" x="-38" y="-187" width="268" height="248" filterUnits="userSpaceOnUse" color-interpolation-filters="sRGB">
<feFlood flood-opacity="0" result="BackgroundImageFix"/>
<feColorMatrix in="SourceAlpha" type="matrix" values="0 0 0 0 0 0 0 0 0 0 0 0 0 0 0 0 0 0 127 0" result="hardAlpha"/>
<feOffset dy="16"/>
<feGaussianBlur stdDeviation="8"/>
<feColorMatrix type="matrix" values="0 0 0 0 0 0 0 0 0 0 0 0 0 0 0 0 0 0 0.09 0"/>
<feBlend mode="normal" in2="BackgroundImageFix" result="effect1_dropShadow_6_16246"/>
<feColorMatrix in="SourceAlpha" type="matrix" values="0 0 0 0 0 0 0 0 0 0 0 0 0 0 0 0 0 0 127 0" result="hardAlpha"/>
<feOffset dy="37"/>
<feGaussianBlur stdDeviation="11"/>
<feColorMatrix type="matrix" values="0 0 0 0 0 0 0 0 0 0 0 0 0 0 0 0 0 0 0.05 0"/>
<feBlend mode="normal" in2="effect1_dropShadow_6_16246" result="effect2_dropShadow_6_16246"/>
<feColorMatrix in="SourceAlpha" type="matrix" values="0 0 0 0 0 0 0 0 0 0 0 0 0 0 0 0 0 0 127 0" result="hardAlpha"/>
<feOffset dy="66"/>
<feGaussianBlur stdDeviation="13"/>
<feColorMatrix type="matrix" values="0 0 0 0 0 0 0 0 0 0 0 0 0 0 0 0 0 0 0.01 0"/>
<feBlend mode="normal" in2="effect2_dropShadow_6_16246" result="effect3_dropShadow_6_16246"/>
<feBlend mode="normal" in="SourceGraphic" in2="effect3_dropShadow_6_16246" result="shape"/>
</filter>
<filter id="filter1_d_6_16246" x="-235" y="-187" width="236" height="309" filterUnits="userSpaceOnUse" color-interpolation-filters="sRGB">
<feFlood flood-opacity="0" result="BackgroundImageFix"/>
<feColorMatrix in="SourceAlpha" type="matrix" values="0 0 0 0 0 0 0 0 0 0 0 0 0 0 0 0 0 0 127 0" result="hardAlpha"/>
<feOffset dy="66"/>
<feGaussianBlur stdDeviation="13"/>
<feColorMatrix type="matrix" values="0 0 0 0 0 0 0 0 0 0 0 0 0 0 0 0 0 0 0.01 0"/>
<feBlend mode="normal" in2="BackgroundImageFix" result="effect1_dropShadow_6_16246"/>
<feBlend mode="normal" in="SourceGraphic" in2="effect1_dropShadow_6_16246" result="shape"/>
</filter>
</defs>
</svg>
