<svg width="24" height="25" viewBox="0 0 24 25" fill="none" xmlns="http://www.w3.org/2000/svg">
  <path
    d="M21.375 12.5C21.375 12.7984 21.2565 13.0845 21.0455 13.2955C20.8345 13.5065 20.5484 13.625 20.25 13.625H3.75C3.45163 13.625 3.16548 13.5065 2.9545 13.2955C2.74353 13.0845 2.625 12.7984 2.625 12.5C2.625 12.2016 2.74353 11.9155 2.9545 11.7045C3.16548 11.4935 3.45163 11.375 3.75 11.375H20.25C20.5484 11.375 20.8345 11.4935 21.0455 11.7045C21.2565 11.9155 21.375 12.2016 21.375 12.5ZM3.75 7.625H20.25C20.5484 7.625 20.8345 7.50647 21.0455 7.2955C21.2565 7.08452 21.375 6.79837 21.375 6.5C21.375 6.20163 21.2565 5.91548 21.0455 5.7045C20.8345 5.49353 20.5484 5.375 20.25 5.375H3.75C3.45163 5.375 3.16548 5.49353 2.9545 5.7045C2.74353 5.91548 2.625 6.20163 2.625 6.5C2.625 6.79837 2.74353 7.08452 2.9545 7.2955C3.16548 7.50647 3.45163 7.625 3.75 7.625ZM20.25 17.375H3.75C3.45163 17.375 3.16548 17.4935 2.9545 17.7045C2.74353 17.9155 2.625 18.2016 2.625 18.5C2.625 18.7984 2.74353 19.0845 2.9545 19.2955C3.16548 19.5065 3.45163 19.625 3.75 19.625H20.25C20.5484 19.625 20.8345 19.5065 21.0455 19.2955C21.2565 19.0845 21.375 18.7984 21.375 18.5C21.375 18.2016 21.2565 17.9155 21.0455 17.7045C20.8345 17.4935 20.5484 17.375 20.25 17.375Z"
    fill="#181822" />
</svg>