<svg width="24" height="24" viewBox="0 0 24 24" fill="none" xmlns="http://www.w3.org/2000/svg">
<g id="RedditLogo">
<path id="Vector" d="M23.25 9.75C23.2498 9.17511 23.0845 8.61236 22.7737 8.12874C22.4629 7.64512 22.0197 7.26098 21.4968 7.02206C20.9739 6.78313 20.3933 6.69948 19.8243 6.78105C19.2552 6.86263 18.7215 7.10599 18.2868 7.48219C16.7165 6.64781 14.8406 6.14344 12.8812 6.02625L13.3678 3.10406L15.029 3.35906C15.1133 3.88309 15.3801 4.36046 15.7823 4.70679C16.1845 5.05312 16.6962 5.24611 17.227 5.25165C17.7577 5.25719 18.2733 5.07493 18.6827 4.73708C19.092 4.39923 19.3688 3.92754 19.464 3.40538C19.5592 2.88322 19.4667 2.34422 19.203 1.88363C18.9392 1.42304 18.5211 1.07053 18.0226 0.888393C17.524 0.70626 16.9771 0.706233 16.4786 0.888318C15.98 1.0704 15.5619 1.42287 15.2981 1.88344L12.8606 1.50844C12.6656 1.47837 12.4666 1.52636 12.3067 1.642C12.1468 1.75765 12.039 1.93163 12.0065 2.12625L11.3625 6.015C9.31496 6.10312 7.34808 6.61312 5.71308 7.48219C5.11599 6.97778 4.34562 6.72633 3.56593 6.78135C2.78624 6.83637 2.05881 7.19352 1.53847 7.77677C1.01814 8.36003 0.74598 9.12334 0.779934 9.90423C0.813888 10.6851 1.15127 11.4219 1.72027 11.9578C1.57445 12.4589 1.50027 12.9781 1.49996 13.5C1.49996 15.5559 2.62496 17.4703 4.67902 18.8897C6.64496 20.25 9.24465 21 12 21C14.7553 21 17.355 20.25 19.3209 18.8897C21.375 17.4703 22.5 15.5559 22.5 13.5C22.4996 12.9781 22.4255 12.4589 22.2796 11.9578C22.5846 11.6764 22.8282 11.335 22.9952 10.9551C23.1621 10.5752 23.2489 10.165 23.25 9.75ZM6.74996 12C6.74996 11.7033 6.83793 11.4133 7.00275 11.1666C7.16758 10.92 7.40184 10.7277 7.67593 10.6142C7.95002 10.5006 8.25162 10.4709 8.54259 10.5288C8.83357 10.5867 9.10084 10.7296 9.31062 10.9393C9.5204 11.1491 9.66326 11.4164 9.72114 11.7074C9.77901 11.9983 9.74931 12.2999 9.63578 12.574C9.52225 12.8481 9.32999 13.0824 9.08331 13.2472C8.83664 13.412 8.54663 13.5 8.24996 13.5C7.85213 13.5 7.4706 13.342 7.1893 13.0607C6.90799 12.7794 6.74996 12.3978 6.74996 12ZM15.3515 17.1628C14.3195 17.7113 13.1687 17.9981 12 17.9981C10.8313 17.9981 9.68041 17.7113 8.6484 17.1628C8.56135 17.1166 8.48426 17.0538 8.42151 16.9778C8.35876 16.9019 8.31159 16.8143 8.28269 16.7201C8.25378 16.6259 8.24372 16.5269 8.25306 16.4288C8.26241 16.3308 8.29098 16.2355 8.33715 16.1484C8.38331 16.0614 8.44617 15.9843 8.52214 15.9215C8.5981 15.8588 8.68568 15.8116 8.77987 15.7827C8.87406 15.7538 8.97303 15.7438 9.07111 15.7531C9.1692 15.7624 9.26448 15.791 9.35152 15.8372C10.167 16.2707 11.0764 16.4974 12 16.4974C12.9235 16.4974 13.8329 16.2707 14.6484 15.8372C14.7354 15.791 14.8307 15.7624 14.9288 15.7531C15.0269 15.7438 15.1259 15.7538 15.22 15.7827C15.3142 15.8116 15.4018 15.8588 15.4778 15.9215C15.5537 15.9843 15.6166 16.0614 15.6628 16.1484C15.7089 16.2355 15.7375 16.3308 15.7469 16.4288C15.7562 16.5269 15.7461 16.6259 15.7172 16.7201C15.6883 16.8143 15.6412 16.9019 15.5784 16.9778C15.5157 17.0538 15.4386 17.1166 15.3515 17.1628ZM15.75 13.5C15.4533 13.5 15.1633 13.412 14.9166 13.2472C14.6699 13.0824 14.4777 12.8481 14.3641 12.574C14.2506 12.2999 14.2209 11.9983 14.2788 11.7074C14.3367 11.4164 14.4795 11.1491 14.6893 10.9393C14.8991 10.7296 15.1664 10.5867 15.4573 10.5288C15.7483 10.4709 16.0499 10.5006 16.324 10.6142C16.5981 10.7277 16.8323 10.92 16.9972 11.1666C17.162 11.4133 17.25 11.7033 17.25 12C17.25 12.3978 17.0919 12.7794 16.8106 13.0607C16.5293 13.342 16.1478 13.5 15.75 13.5Z" fill="#7B44E1"/>
</g>
</svg>
