<svg width="24" height="25" viewBox="0 0 24 25" fill="none" xmlns="http://www.w3.org/2000/svg">
<path d="M20 7.03052V5.03052C20 3.92752 19.103 3.03052 18 3.03052H5C3.346 3.03052 2 4.37652 2 6.03052V18.0305C2 20.2315 3.794 21.0305 5 21.0305H20C21.103 21.0305 22 20.1335 22 19.0305V9.03052C22 7.92752 21.103 7.03052 20 7.03052ZM18 16.0305H16V12.0305H18V16.0305ZM5 7.03052C4.74252 7.019 4.49941 6.90861 4.32128 6.72234C4.14315 6.53606 4.04373 6.28825 4.04373 6.03052C4.04373 5.77278 4.14315 5.52498 4.32128 5.3387C4.49941 5.15242 4.74252 5.04204 5 5.03052H18V7.03052H5Z" fill="#7B44E1"/>
</svg>
