<svg width="20" height="21" viewBox="0 0 20 21" fill="none" xmlns="http://www.w3.org/2000/svg">
  <path
    d="M15.9375 5.03857V13.1636C15.9375 13.4122 15.8387 13.6507 15.6629 13.8265C15.4871 14.0023 15.2486 14.1011 15 14.1011C14.7513 14.1011 14.5129 14.0023 14.3371 13.8265C14.1612 13.6507 14.0625 13.4122 14.0625 13.1636V7.3042L5.66325 15.7019C5.48713 15.878 5.24826 15.9769 4.99918 15.9769C4.75011 15.9769 4.51124 15.878 4.33512 15.7019C4.159 15.5257 4.06006 15.2869 4.06006 15.0378C4.06006 14.7887 4.159 14.5499 4.33512 14.3737L12.7343 5.97607H6.87497C6.62633 5.97607 6.38787 5.8773 6.21205 5.70149C6.03624 5.52567 5.93747 5.28721 5.93747 5.03857C5.93747 4.78993 6.03624 4.55148 6.21205 4.37566C6.38787 4.19985 6.62633 4.10107 6.87497 4.10107H15C15.2486 4.10107 15.4871 4.19985 15.6629 4.37566C15.8387 4.55148 15.9375 4.78993 15.9375 5.03857Z"
    fill="url(#paint0_linear_67_1875)" />
  <defs>
    <linearGradient id="paint0_linear_67_1875" x1="4.06498" y1="4.1011" x2="22.2439" y2="2.99354"
      gradientUnits="userSpaceOnUse">
      <stop stop-color="#F5ABA1" />
      <stop offset="1" stop-color="#703AE6" />
    </linearGradient>
  </defs>
</svg>