<svg width="33" height="33" viewBox="0 0 33 33" fill="none" xmlns="http://www.w3.org/2000/svg">
  <path
    d="M13.8844 5.06907C15.1564 4.30054 16.7495 4.30054 18.0215 5.06907L26.8934 10.4295C29.0601 11.7386 28.132 15.0692 25.6005 15.0692H6.30537C3.77386 15.0692 2.84581 11.7386 5.01252 10.4295L13.8844 5.06907Z"
    fill="#1C4886" />
  <path
    d="M8.3335 17.8193H7.3335C6.22893 17.8193 5.3335 18.7148 5.3335 19.8193V26.8193C5.3335 27.9239 6.22893 28.8193 7.3335 28.8193H8.3335C9.43807 28.8193 10.3335 27.9239 10.3335 26.8193V19.8193C10.3335 18.7148 9.43807 17.8193 8.3335 17.8193Z"
    fill="#6188C0" />
  <path
    d="M16.3335 17.8193H15.3335C14.2289 17.8193 13.3335 18.7148 13.3335 19.8193V26.8193C13.3335 27.9239 14.2289 28.8193 15.3335 28.8193H16.3335C17.4381 28.8193 18.3335 27.9239 18.3335 26.8193V19.8193C18.3335 18.7148 17.4381 17.8193 16.3335 17.8193Z"
    fill="#6188C0" />
  <path
    d="M24.3335 17.8193H23.3335C22.2289 17.8193 21.3335 18.7148 21.3335 19.8193V26.8193C21.3335 27.9239 22.2289 28.8193 23.3335 28.8193H24.3335C25.4381 28.8193 26.3335 27.9239 26.3335 26.8193V19.8193C26.3335 18.7148 25.4381 17.8193 24.3335 17.8193Z"
    fill="#6188C0" />
</svg>