<svg width="56" height="56" viewBox="0 0 56 56" fill="none" xmlns="http://www.w3.org/2000/svg">
  <path
    d="M28 55.1592C43.1878 55.1592 55.5 42.847 55.5 27.6592C55.5 12.4713 43.1878 0.15918 28 0.15918C12.8122 0.15918 0.5 12.4713 0.5 27.6592C0.5 42.847 12.8122 55.1592 28 55.1592Z"
    fill="#222222" />
  <path fill-rule="evenodd" clip-rule="evenodd"
    d="M27.5986 31.2118C23.5309 31.2118 20.2653 27.9461 20.2653 23.8784C20.2653 19.8107 23.5309 16.5451 27.5986 16.5451C31.6663 16.5451 34.932 19.8107 34.932 23.8784C34.932 27.9461 31.6663 31.2118 27.5986 31.2118ZM27.5986 12.8784C33.6716 12.8784 38.5986 17.8055 38.5986 23.8784C38.5986 29.9513 33.6716 34.8784 27.5986 34.8784C21.5257 34.8784 16.5986 29.9513 16.5986 23.8784C16.5986 17.8055 21.5257 12.8784 27.5986 12.8784ZM38.083 35.4513C38.8278 36.1961 38.8278 37.342 38.083 38.0295L30.7497 45.3628C30.0049 46.1076 28.8591 46.1076 28.1716 45.3628C27.4268 44.618 27.4268 43.4722 28.1716 42.7847L35.5049 35.4513C36.1924 34.7065 37.3955 34.7065 38.083 35.4513ZM42.3226 14.7118C42.3226 15.743 41.5205 16.5451 40.4893 16.5451C39.458 16.5451 38.6559 15.743 38.6559 14.7118C38.6559 13.6805 39.458 12.8784 40.4893 12.8784C41.4632 12.8784 42.3226 13.6805 42.3226 14.7118Z"
    fill="white" />
</svg>