<svg width="27" height="24" viewBox="0 0 27 24" fill="none" xmlns="http://www.w3.org/2000/svg">
<path d="M19.1114 12.9036C15.5219 12.9036 11.8892 14.0201 11.8892 16.1536V19.0425C11.8892 21.1759 15.5219 22.2925 19.1114 22.2925C22.7008 22.2925 26.3336 21.1759 26.3336 19.0425V16.1536C26.3336 14.0201 22.7008 12.9036 19.1114 12.9036ZM13.3336 19.0425V18.178C13.791 18.437 14.2754 18.6453 14.778 18.7991V20.1576C13.8305 19.7863 13.3336 19.3443 13.3336 19.0425ZM22.0003 19.1493V20.5728C21.3741 20.7021 20.6519 20.7967 19.8336 20.8314V19.387C20.5605 19.358 21.2844 19.2786 22.0003 19.1493ZM18.3892 20.8321C17.6612 20.8042 16.9366 20.7178 16.2225 20.5736V19.1501C16.9151 19.2757 17.6467 19.3573 18.3892 19.3884V20.8321ZM23.4447 20.1576V18.7991C23.9475 18.6456 24.4319 18.4373 24.8892 18.178V19.0425C24.8892 19.3443 24.393 19.7863 23.4447 20.1576ZM19.1114 17.9591C15.3724 17.9591 13.3336 16.7667 13.3336 16.1536C13.3336 15.5404 15.3724 14.348 19.1114 14.348C22.8503 14.348 24.8892 15.5404 24.8892 16.1536C24.8892 16.7667 22.8503 17.9591 19.1114 17.9591Z" fill="#7B44E1"/>
<path d="M18.3892 20.8321C17.6612 20.8042 16.9366 20.7178 16.2225 20.5736V19.1501C16.9151 19.2757 17.6467 19.3573 18.3892 19.3884V20.8321Z" fill="white"/>
<path d="M22.0003 19.1493V20.5728C21.3741 20.7021 20.6519 20.7967 19.8336 20.8314V19.387C20.5605 19.358 21.2844 19.2786 22.0003 19.1493Z" fill="white"/>
<path d="M23.4447 20.1576V18.7991C23.9475 18.6456 24.4319 18.4373 24.8892 18.178V19.0425C24.8892 19.3443 24.393 19.7863 23.4447 20.1576Z" fill="white"/>
<path d="M13.3336 19.0425V18.178C13.791 18.437 14.2754 18.6453 14.778 18.7991V20.1576C13.8305 19.7863 13.3336 19.3443 13.3336 19.0425Z" fill="white"/>
<path d="M19.1114 17.9591C15.3724 17.9591 13.3336 16.7667 13.3336 16.1536C13.3336 15.5404 15.3724 14.348 19.1114 14.348C22.8503 14.348 24.8892 15.5404 24.8892 16.1536C24.8892 16.7667 22.8503 17.9591 19.1114 17.9591Z" fill="#7B44E1"/>
<path d="M9.76587 0.743652L10.1882 4.69336" stroke="#7B44E1" stroke-width="1.44444" stroke-linecap="round"/>
<path d="M17.55 8.21899L21.4422 5.60873" stroke="#7B44E1" stroke-width="1.44444" stroke-linecap="round"/>
<path d="M14.6309 4.68066L16.9473 0.743416" stroke="#7B44E1" stroke-width="1.44444" stroke-linecap="round"/>
<path d="M5.44038 11.5103C2.90226 14.0484 1.12302 17.4067 2.63159 18.9153L4.67435 20.958C6.18292 22.4666 9.5412 20.6874 12.0793 18.1493C14.6174 15.6111 16.3967 12.2528 14.8881 10.7443L12.8454 8.70152C11.3368 7.19295 7.9785 8.97218 5.44038 11.5103ZM5.69572 19.9367L5.08443 19.3254C5.59104 19.1851 6.08081 18.9899 6.545 18.7432L7.5056 19.7038C6.57309 20.1113 5.90919 20.1501 5.69572 19.9367ZM11.8996 13.884L12.9061 14.8906C12.5548 15.4247 12.111 16.0023 11.5569 16.6054L10.5355 15.5841C11.029 15.0496 11.4848 14.4816 11.8996 13.884ZM10.536 17.6273C10.0015 18.1224 9.42806 18.5736 8.82113 18.9766L7.81457 17.97C8.39318 17.5691 8.96821 17.1095 9.51516 16.6065L10.536 17.6273ZM13.6339 13.5755L12.6733 12.6149C12.9203 12.1509 13.1155 11.6611 13.2554 11.1544L13.8667 11.7656C14.0802 11.9791 14.0419 12.6425 13.6339 13.5755ZM9.0152 15.0851C6.37136 17.729 4.08654 18.3275 3.65297 17.8939C3.2194 17.4603 3.81792 15.1755 6.46175 12.5317C9.10559 9.88785 11.3904 9.28932 11.824 9.7229C12.2576 10.1565 11.659 12.4413 9.0152 15.0851Z" fill="#7B44E1"/>
<path d="M10.536 17.6273C10.0015 18.1224 9.42806 18.5736 8.82113 18.9766L7.81457 17.97C8.39318 17.5691 8.96821 17.1095 9.51516 16.6065L10.536 17.6273Z" fill="white"/>
<path d="M11.8996 13.884L12.9061 14.8906C12.5548 15.4247 12.111 16.0023 11.5569 16.6054L10.5355 15.5841C11.029 15.0496 11.4848 14.4816 11.8996 13.884Z" fill="white"/>
<path d="M13.6339 13.5755L12.6733 12.6149C12.9203 12.1509 13.1155 11.6611 13.2554 11.1544L13.8667 11.7656C14.0802 11.9791 14.0419 12.6425 13.6339 13.5755Z" fill="white"/>
<path d="M5.69572 19.9367L5.08443 19.3254C5.59104 19.1851 6.08081 18.9899 6.545 18.7432L7.5056 19.7038C6.57309 20.1113 5.90919 20.1501 5.69572 19.9367Z" fill="white"/>
<path d="M9.0152 15.0851C6.37136 17.729 4.08654 18.3275 3.65297 17.8939C3.2194 17.4603 3.81792 15.1755 6.46175 12.5317C9.10559 9.88785 11.3904 9.28932 11.824 9.7229C12.2576 10.1565 11.659 12.4413 9.0152 15.0851Z" fill="#7B44E1"/>
</svg>
