<svg width="33" height="33" viewBox="0 0 33 33" fill="none" xmlns="http://www.w3.org/2000/svg">
  <path
    d="M9.66675 26.8193C12.9805 26.8193 15.6667 22.3422 15.6667 16.8193C15.6667 11.2965 12.9805 6.81934 9.66675 6.81934C6.35304 6.81934 3.66675 11.2965 3.66675 16.8193C3.66675 22.3422 6.35304 26.8193 9.66675 26.8193Z"
    fill="#D4D3FD" />
  <mask id="mask0_28_1094" style="mask-type:luminance" maskUnits="userSpaceOnUse" x="-16" y="0" width="65" height="33">
    <path d="M48.6667 0.819336H-15.3333V32.8193H48.6667V0.819336Z" fill="white" />
  </mask>
  <g mask="url(#mask0_28_1094)">
    <path
      d="M21.6667 29.8193C26.085 29.8193 29.6667 23.999 29.6667 16.8193C29.6667 9.63963 26.085 3.81934 21.6667 3.81934C17.2485 3.81934 13.6667 9.63963 13.6667 16.8193C13.6667 23.999 17.2485 29.8193 21.6667 29.8193Z"
      fill="#9896FF" />
  </g>
</svg>