<svg width="32" height="33" viewBox="0 0 32 33" fill="none" xmlns="http://www.w3.org/2000/svg">
  <path
    d="M6 19.6174V9.77125C6 8.62408 6.78074 7.62412 7.89366 7.3459L22.8937 3.59589C24.4715 3.20143 26 4.39482 26 6.02125V15.8674C26 17.0145 25.2193 18.0145 24.1063 18.2927L9.10634 22.0427C7.52847 22.4372 6 21.2438 6 19.6174Z"
    fill="#6BCEF5" />
  <path
    d="M26 26.6159V16.7698C26 15.6226 25.2193 14.6226 24.1063 14.3444L9.10634 10.5944C7.52847 10.2 6 11.3933 6 13.0197V22.8659C6 24.013 6.78074 25.013 7.89366 25.2912L22.8937 29.0412C24.4715 29.4357 26 28.2423 26 26.6159Z"
    fill="#B5E7FA" />
</svg>