<svg width="50" height="59" viewBox="0 0 50 59" fill="none" xmlns="http://www.w3.org/2000/svg">
<g clip-path="url(#clip0_80_247)">
<path d="M19.6085 13.8865C18.9846 13.7969 18.9549 13.767 19.252 13.7371C19.8164 13.6475 21.1236 13.767 22.0446 13.9761C24.1836 14.484 26.1147 15.7984 28.1646 18.0987L28.6994 18.726L29.4718 18.6065C32.7695 18.0688 36.1563 18.487 38.9786 19.8014C39.7511 20.1599 40.9691 20.8769 41.1177 21.0561C41.1771 21.1159 41.2662 21.5042 41.3256 21.8926C41.5336 23.2966 41.4445 24.3422 40.9988 25.1488C40.7612 25.5969 40.7612 25.7164 40.9097 26.1047C41.0285 26.4035 41.385 26.6126 41.7118 26.6126C42.4249 26.6126 43.1676 25.4774 43.5241 23.8941L43.6726 23.2668L43.94 23.5655C45.4552 25.2683 46.6435 27.6283 46.8218 29.3012L46.8812 29.7493L46.6138 29.3609C46.1682 28.6739 45.7523 28.2258 45.1878 27.8374C44.1777 27.1503 43.1082 26.9412 40.2858 26.7918C37.7309 26.6425 36.2751 26.4333 34.8491 25.9554C32.413 25.1488 31.1652 24.1032 28.2834 20.2495C27.006 18.5468 26.2038 17.6207 25.4017 16.844C23.6489 15.1412 21.896 14.245 19.6085 13.8865Z" fill="#222222"/>
<path d="M41.7409 17.6805C41.8004 16.5453 41.9489 15.7985 42.2757 15.1114C42.3945 14.8425 42.5134 14.6035 42.5431 14.6035C42.5728 14.6035 42.5134 14.8126 42.4242 15.0516C42.1866 15.7088 42.1569 16.6349 42.3054 17.6805C42.5134 19.0248 42.6025 19.204 44.0285 20.6678C44.6821 21.3549 45.4545 22.2212 45.7516 22.5797L46.2567 23.2369L45.7516 22.759C45.1277 22.1615 43.7017 21.0263 43.3749 20.8769C43.167 20.7574 43.1373 20.7574 42.9887 20.9068C42.8699 21.0263 42.8402 21.2055 42.8402 22.0719C42.8105 23.4162 42.6322 24.2526 42.1866 25.119C41.9489 25.5671 41.9192 25.4774 42.1272 24.9696C42.2757 24.5812 42.3054 24.402 42.3054 23.1174C42.3054 20.5185 42.0083 19.8911 40.1961 18.8455C39.7504 18.5767 38.978 18.1883 38.5324 17.9792C38.057 17.7701 37.7005 17.5909 37.7302 17.5909C37.7897 17.5311 39.5425 18.039 40.2258 18.3377C41.2656 18.7559 41.4438 18.7858 41.5627 18.7559C41.6518 18.6663 41.7112 18.4273 41.7409 17.6805Z" fill="#222222"/>
<path d="M20.8261 22.1322C19.5783 20.3995 18.7762 17.7109 18.9544 15.7094L19.0138 15.082L19.3109 15.1418C19.8457 15.2314 20.7667 15.5899 21.2123 15.8587C22.4006 16.5757 22.9354 17.5615 23.4404 20.0111C23.589 20.7281 23.797 21.5646 23.8861 21.8334C24.0346 22.2815 24.5991 23.3271 25.0744 23.9843C25.4012 24.4623 25.1933 24.7013 24.4506 24.6415C23.3216 24.522 21.8065 23.4765 20.8261 22.1322Z" fill="#222222"/>
<path d="M40.2256 35.1263C34.3433 32.7364 32.2637 30.6752 32.2637 27.18C32.2637 26.6721 32.2934 26.2539 32.2934 26.2539C32.3231 26.2539 32.5311 26.4331 32.7984 26.6423C33.9868 27.5982 35.3237 28.0164 39.0373 28.5542C41.206 28.8828 42.4538 29.1218 43.5827 29.5101C47.1775 30.705 49.4057 33.1547 49.9404 36.4706C50.089 37.4266 49.9999 39.2489 49.7622 40.2048C49.5542 40.9516 48.96 42.3258 48.8115 42.3557C48.7818 42.3557 48.7224 42.2063 48.7224 41.9673C48.663 40.7127 48.0391 39.5177 46.9993 38.5916C45.7515 37.5162 44.1472 36.7096 40.2256 35.1263Z" fill="#222222"/>
<path d="M36.0665 36.111C36.0071 35.6629 35.8585 35.0953 35.7694 34.8563L35.6209 34.4082L35.8882 34.7368C36.2745 35.1849 36.5715 35.7226 36.8389 36.4695C37.0469 37.0371 37.0469 37.2163 37.0469 38.1424C37.0469 39.0386 37.0172 39.2477 36.8389 39.7555C36.5418 40.5621 36.1853 41.1297 35.5912 41.7571C34.5216 42.8624 33.1253 43.4599 31.1348 43.7287C30.7783 43.7586 29.7682 43.8482 28.877 43.908C26.6488 44.0275 25.1633 44.2664 23.8264 44.7444C23.6482 44.8042 23.4699 44.8639 23.4402 44.834C23.3808 44.7743 24.3018 44.2366 25.0445 43.8781C26.0843 43.3702 27.1538 43.1014 29.5008 42.6831C30.6595 42.5039 31.8478 42.2649 32.1449 42.1454C35.0861 41.2193 36.5418 38.9191 36.0665 36.111Z" fill="#222222"/>
<path d="M38.7702 40.9214C37.9978 39.2187 37.8195 37.6055 38.2354 36.0819C38.2949 35.9326 38.3543 35.7832 38.4137 35.7832C38.4731 35.7832 38.6514 35.8728 38.8296 35.9923C39.1861 36.2313 39.9289 36.6495 41.8302 37.6951C44.2366 39.0095 45.6032 40.0252 46.5539 41.1903C47.3858 42.206 47.8908 43.3711 48.1285 44.805C48.277 45.6116 48.1879 47.5533 47.98 48.3599C47.3264 50.8992 45.8409 52.9306 43.6722 54.0956C43.3454 54.2749 43.078 54.3944 43.0483 54.3944C43.0186 54.3944 43.1374 54.0956 43.3157 53.7371C44.0287 52.2136 44.1178 50.7498 43.583 49.1068C43.2562 48.0911 42.5729 46.8663 41.2063 44.805C39.5723 42.4151 39.1861 41.7878 38.7702 40.9214Z" fill="#222222"/>
<path d="M16.6371 50.0642C18.8355 48.2121 21.539 46.8976 24.0346 46.4794C25.1041 46.3002 26.8866 46.3599 27.867 46.6288C29.4416 47.047 30.8676 47.9432 31.6103 49.0485C32.3233 50.124 32.6501 51.05 32.9769 53.1113C33.0958 53.9179 33.2443 54.7544 33.274 54.9336C33.5117 56.009 33.987 56.8455 34.5812 57.2936C35.5022 57.9807 37.1065 58.0106 38.681 57.4131C38.9484 57.3235 39.1861 57.2339 39.1861 57.2637C39.2455 57.3235 38.4434 57.8612 37.9086 58.1301C37.1659 58.5184 36.5717 58.6379 35.7696 58.6379C34.3435 58.6379 33.1255 57.8911 32.1451 56.3974C31.9371 56.0987 31.5212 55.2323 31.1647 54.4257C30.1249 52.006 29.5901 51.289 28.3721 50.4825C27.3025 49.7954 25.9359 49.646 24.8961 50.1538C23.5295 50.8111 23.173 52.5736 24.1237 53.649C24.5099 54.0971 25.2229 54.4556 25.8171 54.5452C26.9163 54.6946 27.867 53.8283 27.867 52.723C27.867 52.006 27.5996 51.5878 26.8866 51.2592C25.9359 50.8409 24.8961 51.3189 24.9258 52.245C24.9258 52.6333 25.1041 52.8723 25.4903 53.0516C25.728 53.1711 25.728 53.1711 25.5497 53.1412C24.6882 52.9619 24.4802 51.8865 25.1635 51.1994C25.9954 50.363 27.7482 50.7214 28.3424 51.8865C28.58 52.3645 28.6097 53.3204 28.4018 53.9179C27.8967 55.2323 26.4707 55.9194 25.015 55.5311C24.0346 55.2622 23.6186 54.9933 22.4303 53.7685C20.3507 51.6176 19.5485 51.1994 16.5777 50.7513L16.0132 50.6617L16.6371 50.0642Z" fill="#222222"/>
<path fill-rule="evenodd" clip-rule="evenodd" d="M1.01045 1.99745C7.93261 10.4516 18.5981 23.5959 19.1328 24.3129C19.5785 24.9104 19.4002 25.478 18.6575 25.8962C18.2416 26.1352 17.38 26.3742 16.9641 26.3742C16.4888 26.3742 15.9243 26.1352 15.5381 25.7468C15.2707 25.478 14.112 23.7752 11.4977 19.6825C9.50718 16.5458 7.81377 13.9468 7.78406 13.917C7.66523 13.8572 7.66523 13.8572 11.2897 20.3696C13.5773 24.4623 14.32 25.9261 14.32 26.1053C14.32 26.4937 14.2012 26.7028 13.7258 27.2405C12.9237 28.1367 12.5672 29.1524 12.2998 31.2734C12.0027 33.6334 11.2006 35.3063 8.913 38.1443C7.5761 39.8172 7.36814 40.116 7.04134 40.8031C6.62542 41.6395 6.50658 42.1175 6.44717 43.1929C6.38775 44.3281 6.50658 45.0451 6.83338 46.1205C7.13047 47.0765 7.45727 47.7038 8.2594 48.9286C8.94271 50.0041 9.35863 50.8107 9.35863 51.1094C9.35863 51.3484 9.41805 51.3484 10.4876 51.1094C13.0425 50.5119 15.1519 49.4962 16.3105 48.2415C17.0235 47.4648 17.2018 47.0466 17.2018 45.9712C17.2018 45.2841 17.1721 45.1347 16.9938 44.7165C16.6967 44.0593 16.1322 43.5215 14.9142 42.6851C13.3099 41.5798 12.6266 40.6836 12.4484 39.4886C12.2998 38.4729 12.4781 37.7858 13.3693 35.9038C14.2903 33.962 14.528 33.1555 14.6765 31.1838C14.7656 29.9291 14.9142 29.4213 15.2707 29.0329C15.6569 28.6147 15.9837 28.4653 16.9047 28.3458C18.4198 28.1367 19.4002 27.7484 20.1727 27.0015C20.856 26.3742 21.153 25.7468 21.1828 24.8208L21.2125 24.1337L20.8262 23.7154C19.4299 22.1023 0.0894714 0.712891 0.000344901 0.712891C-0.0293639 0.712891 0.445978 1.28049 1.01045 1.99745ZM10.1311 44.4775C10.4579 43.9099 10.2796 43.1929 9.74485 42.8344C9.2398 42.5058 8.46737 42.6552 8.46737 43.1033C8.46737 43.2228 8.52678 43.3423 8.70504 43.402C8.97242 43.5514 9.00213 43.7008 8.79416 44.0294C8.5862 44.358 8.5862 44.6567 8.85358 44.8658C9.26951 45.1945 9.83397 45.0152 10.1311 44.4775Z" fill="#222222"/>
<path fill-rule="evenodd" clip-rule="evenodd" d="M22.1629 28.7644C21.4499 28.9735 20.7666 29.7503 20.5586 30.527C20.4398 31.0049 20.4992 31.8713 20.7072 32.1401C21.034 32.5584 21.331 32.6779 22.1629 32.6779C23.7969 32.6779 25.1932 31.9609 25.3417 31.0946C25.4903 30.3776 24.8664 29.3918 24.0048 28.9437C23.5592 28.7047 22.6382 28.6151 22.1629 28.7644ZM24.0643 30.2581C24.3019 29.8996 24.2128 29.5113 23.7672 29.2424C22.965 28.7346 21.747 29.1528 21.747 29.9295C21.747 30.3178 22.3709 30.7361 22.965 30.7361C23.3512 30.7361 23.886 30.4971 24.0643 30.2581Z" fill="#222222"/>
</g>
<defs>
<clipPath id="clip0_80_247">
<rect width="50" height="57.8947" fill="white" transform="translate(0 0.712891)"/>
</clipPath>
</defs>
</svg>
