<svg width="48" height="51" viewBox="0 0 48 51" fill="none" xmlns="http://www.w3.org/2000/svg">
<path d="M41.9208 35.7417C41.0104 34.954 39.8469 34.5109 38.6327 34.5109C37.2671 34.5109 36.0023 35.0526 35.0412 36.0373C31.5003 39.7791 28.3133 41.2069 23.7605 41.2069C19.0055 41.2069 15.7174 39.73 12.1258 35.988C11.2153 35.0526 9.90003 34.4616 8.58478 34.4616C7.37073 34.4616 6.15667 34.9049 5.24612 35.7417C3.32387 37.5635 3.22269 40.5668 5.04377 42.438C10.5071 48.0999 16.2738 50.6602 23.7605 50.6602C31.0955 50.6602 36.7612 48.0999 42.1739 42.438C44.0454 40.5178 43.8937 37.5142 41.9208 35.7417Z" fill="#222222"/>
<path d="M41.8194 26.3385C44.8645 26.3385 47.3332 23.9357 47.3332 20.9717C47.3332 18.0079 44.8645 15.6051 41.8194 15.6051C38.7741 15.6051 36.3055 18.0079 36.3055 20.9717C36.3055 23.9357 38.7741 26.3385 41.8194 26.3385Z" fill="#222222"/>
<path d="M3.32347 25.5006C0.74359 23.9744 -0.11637 20.6757 1.45179 18.1646L10.6584 3.2462C12.2266 0.735187 15.6158 -0.101825 18.1957 1.42449C20.7756 2.9508 21.6355 6.24959 20.0674 8.7606L10.8608 23.6297C9.29261 26.19 5.90334 26.9777 3.32347 25.5006Z" fill="#222222"/>
<path d="M21.079 25.5006C18.4991 23.9744 17.6392 20.6757 19.2073 18.1646L28.414 3.2462C29.9821 0.735187 33.3715 -0.101825 35.9513 1.42449C38.5311 2.9508 39.3911 6.24959 37.823 8.7606L28.6669 23.6297C27.0988 26.19 23.7095 26.9777 21.079 25.5006Z" fill="#222222"/>
</svg>
