<svg width="56" height="56" viewBox="0 0 56 56" fill="none" xmlns="http://www.w3.org/2000/svg">
<path fill-rule="evenodd" clip-rule="evenodd" d="M28 55.2402C43.1877 55.2402 55.5 42.9279 55.5 27.7402C55.5 12.5525 43.1877 0.240234 28 0.240234C12.8123 0.240234 0.5 12.5525 0.5 27.7402C0.5 42.9279 12.8123 55.2402 28 55.2402ZM13.8672 22.997C13.4659 23.39 13.147 23.8592 12.9293 24.377C12.7116 24.8949 12.5995 25.451 12.5995 26.0127C12.5995 26.5744 12.7116 27.1305 12.9293 27.6483C13.147 28.1662 13.4659 28.6353 13.8672 29.0283C15.2576 30.387 16.6528 31.7407 18.0527 33.0895C20.8753 35.8164 23.7001 38.5444 26.4402 41.3483C26.8725 41.7905 27.4434 42.0116 28.0165 42.0116C28.5918 42.0127 29.1671 41.7916 29.6016 41.3472C32.3692 38.5224 35.2116 35.7647 38.0518 33.007C39.4158 31.6826 40.7798 30.3593 42.1361 29.0283C42.5365 28.6348 42.8545 28.1654 43.0716 27.6477C43.2887 27.1299 43.4005 26.5741 43.4005 26.0127C43.4005 25.4513 43.2887 24.8954 43.0716 24.3777C42.8545 23.8599 42.5365 23.3906 42.1361 22.997L37.9814 18.9182C37.1955 18.1457 36.1376 17.7127 35.0356 17.7127C33.9336 17.7127 32.8757 18.1457 32.0898 18.9182L31.5332 19.4627L27.4577 15.4708C26.6688 14.6981 25.6085 14.2653 24.5042 14.2653C23.3999 14.2653 22.3396 14.6981 21.5507 15.4708L13.8672 22.997ZM35.0356 29.8137L31.1735 26.0209C31.8665 25.3422 32.5551 24.6602 33.2448 23.9782C33.841 23.3886 34.4372 22.799 35.0356 22.2116L38.9065 26.0121L35.0356 29.8137ZM28.3762 22.5581L20.9853 29.8137L17.1056 26.0121L24.5042 18.7653L28.3762 22.5581ZM28.0275 29.1031L31.8852 32.9069L28.0187 36.703L24.1434 32.9069L28.0264 29.102L28.0275 29.1031Z" fill="#222222"/>
</svg>
